<svg width="77" height="77" viewBox="0 0 77 77" fill="none" xmlns="http://www.w3.org/2000/svg">
<rect width="77" height="77" fill="#E8F643"/>
<path d="M70.3694 70.3937V70.7459H33.9518C34.0643 70.6693 34.1982 70.6693 34.326 70.6485C34.6127 70.6015 34.902 70.5659 35.186 70.5059C36.6391 70.1998 37.844 69.4815 38.8264 68.4024C38.8907 68.332 38.9684 68.2668 38.9996 68.1511C38.7505 67.9355 38.504 67.7216 38.2575 67.5086C38.0101 67.2938 37.7636 67.0773 37.5135 66.866C37.2652 66.6564 37.0294 66.4312 36.7561 66.2303C36.6123 66.3468 36.4837 66.4538 36.3516 66.5581C35.9211 66.9007 35.4531 67.1799 34.9261 67.3633C34.1286 67.6416 33.3105 67.6712 32.4897 67.5225C31.702 67.3799 31.0464 66.9999 30.5686 66.3582C30.2819 65.9721 30.0997 65.5399 29.9819 65.0817C29.9729 65.0478 29.9881 65.0086 29.9926 64.9695C30.1301 64.9252 30.2614 64.9408 30.3909 64.9408C33.3141 64.9399 36.2372 64.9408 39.1604 64.9408C39.2604 64.9408 39.3614 64.9443 39.4614 64.9391C39.5284 64.9356 39.5945 64.9191 39.6766 64.9052C39.6945 64.5999 39.7213 64.3078 39.7266 64.0156C39.74 63.3582 39.6757 62.7061 39.5516 62.0609C39.3569 61.0514 39.0014 60.1036 38.4155 59.241C37.6207 58.0706 36.5427 57.2628 35.1664 56.8523C34.0044 56.5063 32.8211 56.448 31.6216 56.6532C30.2507 56.8871 29.0816 57.5001 28.1036 58.4488C27.2784 59.2497 26.7122 60.2131 26.3674 61.2966C26.045 62.3078 25.9414 63.3417 26.0441 64.3973C26.1406 65.3938 26.4139 66.3364 26.9042 67.2164C27.5865 68.4416 28.5814 69.3529 29.8622 69.9659C30.6347 70.3354 31.4564 70.5511 32.312 70.6476C32.4406 70.6624 32.5746 70.6624 32.6844 70.745H6.69922C6.69922 49.6717 6.69922 28.5966 6.69922 7.52246C27.9223 7.52246 49.1463 7.52246 70.3694 7.52246C70.3694 15.1735 70.3694 22.8246 70.3694 30.4757C70.2292 30.4827 70.0899 30.4966 69.9497 30.4966C64.273 30.4974 58.5955 30.4974 52.9188 30.4974C52.8188 30.4974 52.7179 30.494 52.6179 30.5001C52.5607 30.5035 52.5053 30.5218 52.4553 30.5322C52.4089 30.8009 52.391 32.6122 52.4223 33.713C52.4241 33.7695 52.4366 33.826 52.4428 33.8747C52.5455 33.9287 52.6339 33.8887 52.7206 33.8791C53.3859 33.8052 53.9995 33.9356 54.5515 34.3121C54.5988 34.3443 54.6354 34.3912 54.6881 34.4417C54.5193 34.6695 54.3862 34.9104 54.1835 35.1217C54.0897 35.0721 54.0022 35.0269 53.9165 34.9799C53.7048 34.8643 53.4833 34.773 53.2422 34.7365C53.0626 34.7086 52.8804 34.6991 52.7072 34.7669C52.558 34.8252 52.4535 34.9243 52.4446 35.0921C52.4366 35.2564 52.5089 35.3782 52.6616 35.4451C52.7893 35.5017 52.9215 35.5495 53.0555 35.5912C53.285 35.6625 53.5181 35.7225 53.7486 35.7921C54.0004 35.8677 54.2335 35.9816 54.4425 36.1373C54.6792 36.3138 54.8024 36.5538 54.8292 36.8399C54.8382 36.9373 54.8346 37.0355 54.8319 37.1329C54.8212 37.5199 54.6542 37.8277 54.3353 38.059C54.1049 38.2268 53.845 38.3216 53.5619 38.3633C53.2707 38.4059 52.9814 38.3903 52.6911 38.352C52.6143 38.3416 52.5366 38.339 52.4562 38.332C52.4044 38.452 52.4214 38.5607 52.4214 38.6659C52.4205 42.051 52.4214 45.4353 52.4214 48.8204C52.4214 48.8787 52.4178 48.9378 52.4232 48.996C52.4285 49.0517 52.4446 49.1065 52.4562 49.1621C52.5973 49.2039 52.7277 49.1865 52.8563 49.1865C58.5633 49.1873 64.2704 49.1865 69.9774 49.1882C70.1078 49.1882 70.2373 49.1978 70.3677 49.2039V66.3451C69.0423 66.3434 67.7178 66.3416 66.3924 66.3408C66.3343 66.3408 66.2754 66.3555 66.2138 66.3642C66.2004 66.4086 66.1798 66.4451 66.1798 66.4816C66.178 67.7425 66.178 69.0033 66.1798 70.2641C66.1798 70.3015 66.1986 70.338 66.2111 70.3806C66.2754 70.3867 66.3343 70.398 66.3933 70.398C67.7187 70.398 69.0432 70.3963 70.3685 70.3954L70.3694 70.3937ZM8.30325 70.3902C8.43544 70.3928 8.55422 70.398 8.67211 70.398C11.4854 70.398 14.2996 70.3998 17.1129 70.398C18.0204 70.398 18.9179 70.3059 19.7994 70.0928C20.5657 69.9076 21.2874 69.6215 21.9367 69.1755C22.8941 68.5181 23.4862 67.6312 23.7024 66.5103C23.8417 65.7903 23.8292 65.0678 23.6765 64.3521C23.513 63.5861 23.1531 62.9183 22.5708 62.3713C22.2805 62.0983 21.9599 61.8609 21.6062 61.6722C21.307 61.5131 20.9944 61.3792 20.6899 61.2287C20.6131 61.1905 20.5077 61.1913 20.4639 61.0783C20.5345 61.0313 20.6068 60.9792 20.6818 60.934C20.948 60.774 21.1945 60.5896 21.4249 60.3853C22.076 59.8079 22.5038 59.1062 22.6753 58.2601C22.7816 57.7375 22.7976 57.2132 22.7423 56.6845C22.6262 55.5776 22.1171 54.6733 21.2543 53.9576C20.5827 53.4011 19.7932 53.0698 18.9438 52.8638C18.2284 52.6899 17.4997 52.6229 16.7637 52.622C14.0603 52.6203 11.3577 52.622 8.65425 52.622C8.59352 52.622 8.53368 52.6194 8.47384 52.6229C8.41668 52.6264 8.35952 52.6359 8.29343 52.6446C8.2845 52.7168 8.27289 52.7733 8.2711 52.8298C8.23448 53.9646 8.25771 70.072 8.30147 70.3911L8.30325 70.3902ZM12.3348 20.8273C12.4312 20.7864 12.5429 20.8012 12.6518 20.8012C13.5458 20.8003 14.4399 20.7969 15.3339 20.8012C16.0394 20.8056 16.7378 20.7473 17.4291 20.6073C18.4526 20.4003 19.4127 20.0464 20.271 19.4526C21.1784 18.8247 21.8491 18.0135 22.2689 17.0083C22.5011 16.4518 22.6297 15.8727 22.6896 15.2744C22.803 14.1449 22.6717 13.0484 22.2269 11.9971C21.9134 11.2554 21.4544 10.6059 20.8426 10.0633C20.062 9.37023 19.1457 8.92242 18.132 8.65373C17.3523 8.44678 16.553 8.36591 15.7483 8.36331C13.5682 8.35635 11.3881 8.3607 9.20887 8.3607C8.97756 8.3607 8.74713 8.35896 8.51582 8.36157C8.44794 8.36157 8.38006 8.37548 8.3104 8.38244C8.2461 8.52678 8.27289 8.66504 8.27289 8.79895C8.2711 14.4127 8.272 20.0273 8.272 25.6411C8.272 25.7385 8.26932 25.8367 8.27378 25.9341C8.27646 25.9906 8.28986 26.0463 8.29879 26.1063C8.35059 26.1167 8.38899 26.1306 8.4274 26.1306C9.67329 26.1306 10.9183 26.1306 12.1642 26.128C12.1919 26.128 12.2196 26.1115 12.2481 26.1028C12.3089 26.0002 12.2848 25.8906 12.2848 25.7854C12.2866 24.8367 12.2857 23.8881 12.2857 22.9394C12.2857 22.3333 12.2848 21.7264 12.2874 21.1203C12.2874 21.0255 12.2633 20.9247 12.3357 20.8264L12.3348 20.8273ZM22.6842 36.4947C22.6342 36.3538 22.6503 36.2451 22.6494 36.139C22.6485 34.6625 22.6494 33.1852 22.6494 31.7087C22.6494 31.1705 22.6512 30.6331 22.6485 30.0949C22.6485 29.9896 22.6735 29.8792 22.602 29.7766C22.5002 29.7305 22.3886 29.7453 22.2796 29.7453C21.5258 29.7436 20.7729 29.7453 20.0191 29.7453C19.6673 29.7453 19.3163 29.7444 18.9644 29.747C18.8769 29.747 18.7822 29.7296 18.6893 29.8227C18.6857 29.9479 18.6777 30.0922 18.6777 30.2375C18.6777 36.086 18.6777 41.9354 18.6777 47.7839C18.6777 47.8813 18.6759 47.9796 18.6804 48.0769C18.683 48.1326 18.6982 48.1874 18.7107 48.2578C18.8242 48.263 18.9224 48.2717 19.0215 48.2726C19.5136 48.2743 20.0057 48.2726 20.4979 48.2726C21.1105 48.2726 21.7232 48.2735 22.3359 48.2709C22.4323 48.2709 22.5359 48.2952 22.6395 48.2169C22.6422 48.1065 22.6485 47.9909 22.6485 47.8752C22.6485 45.4883 22.6485 43.1023 22.6503 40.7154C22.6503 40.5398 22.6512 40.3624 22.6708 40.1885C22.7217 39.7276 22.8396 39.285 23.1022 38.8894C23.4175 38.4137 23.8631 38.1207 24.4249 37.9885C24.7911 37.9025 25.1635 37.8946 25.5332 37.939C26.2826 38.0285 26.8488 38.3877 27.19 39.0572C27.3891 39.4485 27.4874 39.8659 27.5097 40.2998C27.5249 40.5928 27.5285 40.8858 27.5285 41.1798C27.5302 43.058 27.5285 44.9353 27.5285 46.8135C27.5285 47.1952 27.5276 47.5761 27.5294 47.9578C27.5294 48.0535 27.5097 48.1543 27.5829 48.2648C27.6767 48.2674 27.7857 48.2735 27.8946 48.2735C28.869 48.2735 29.8434 48.2735 30.8178 48.2735C30.9786 48.2735 31.1393 48.2761 31.3001 48.27C31.3555 48.2682 31.4108 48.243 31.4689 48.2282C31.4734 48.1361 31.4796 48.0587 31.4796 47.9813C31.4796 45.0762 31.4823 42.1719 31.4796 39.2668C31.4796 38.3955 31.3135 37.5538 30.9223 36.7651C30.3972 35.7069 29.5648 34.986 28.4028 34.6443C27.5829 34.4026 26.7461 34.3478 25.9003 34.4799C25.2251 34.5852 24.608 34.8312 24.0534 35.2225C23.6443 35.5112 23.2835 35.8486 22.9548 36.2216C22.878 36.3086 22.8128 36.4068 22.6842 36.4973V36.4947ZM38.236 42.8449C38.3637 42.7754 38.4977 42.8041 38.6245 42.8041C41.579 42.8023 44.5334 42.8032 47.4878 42.8014C47.6164 42.8014 47.7486 42.8206 47.887 42.7736C47.8995 42.7319 47.9219 42.6867 47.9263 42.6406C47.9469 42.3771 47.9781 42.1136 47.9772 41.851C47.9755 40.9667 47.8745 40.0937 47.6298 39.2398C47.394 38.4137 47.0511 37.6346 46.5358 36.9347C45.7168 35.8234 44.6397 35.0643 43.2839 34.6878C42.4542 34.4573 41.6075 34.3773 40.7493 34.4217C40.0946 34.4556 39.4507 34.566 38.8335 34.7852C37.0973 35.4017 35.8425 36.5425 35.0271 38.1468C34.6037 38.9798 34.3688 39.865 34.2894 40.7919C34.1974 41.8676 34.2974 42.9223 34.6439 43.9492C35.2057 45.6135 36.2783 46.87 37.8556 47.7126C38.8603 48.25 39.949 48.4995 41.086 48.5648C41.9746 48.6152 42.8525 48.5343 43.7135 48.3126C45.0755 47.9613 46.2053 47.2509 47.1216 46.2118C47.1654 46.1622 47.1975 46.1031 47.2315 46.0527C47.0573 45.8414 45.2175 44.2544 44.9826 44.1127C44.8951 44.1831 44.8022 44.2562 44.7129 44.3327C44.3074 44.6744 43.868 44.9649 43.3697 45.1605C42.4667 45.5144 41.5397 45.5761 40.5921 45.364C40.1857 45.2735 39.8106 45.1127 39.4748 44.8727C38.821 44.4066 38.4423 43.7649 38.2387 43.0154C38.2244 42.9623 38.2369 42.9023 38.2369 42.8449H38.236ZM34.5171 16.4066C34.6555 16.3622 34.76 16.3318 34.8627 16.2944C35.8014 15.9579 36.7695 15.7518 37.768 15.6935C38.3405 15.6596 38.9121 15.6657 39.4757 15.7935C39.7213 15.8492 39.958 15.9292 40.1821 16.0413C40.6073 16.2535 40.9252 16.5674 41.1297 16.99C41.3271 17.3978 41.3807 17.8309 41.378 18.2752C41.378 18.3021 41.3575 18.3282 41.3441 18.363C41.2298 18.37 41.1297 18.3204 41.0243 18.2926C40.6948 18.2074 40.3679 18.1065 40.0339 18.0413C38.8014 17.8004 37.5617 17.7726 36.3194 17.9726C35.6514 18.0804 35.0083 18.2665 34.4108 18.5821C33.3194 19.1586 32.6487 20.0412 32.4138 21.229C32.295 21.829 32.2914 22.4351 32.4013 23.0385C32.5898 24.0681 33.1113 24.8985 33.9857 25.5106C34.7493 26.0463 35.6192 26.2871 36.5436 26.3732C37.1268 26.4271 37.7073 26.3976 38.2843 26.3054C38.8835 26.2097 39.4516 26.028 39.9847 25.7411C40.4009 25.5167 40.7716 25.2359 41.1128 24.915C41.1672 24.8637 41.2101 24.7889 41.3244 24.7967C41.3325 24.8698 41.3485 24.9437 41.3494 25.0185C41.353 25.3115 41.3503 25.6054 41.3539 25.8985C41.3539 25.9741 41.3396 26.0576 41.4244 26.1202C41.4557 26.1245 41.495 26.1332 41.5343 26.1332C42.6891 26.1332 43.8448 26.1341 44.9996 26.1332C45.0469 26.1332 45.0943 26.1184 45.1461 26.1106C45.1916 25.975 45.1755 25.8471 45.1755 25.7219C45.1764 23.2081 45.1764 20.6951 45.1755 18.1813C45.1755 17.79 45.1568 17.4004 45.1023 17.0118C45.0201 16.4274 44.8799 15.8596 44.6397 15.317C44.3315 14.6223 43.8886 14.0284 43.2714 13.5605C42.732 13.1519 42.1264 12.8797 41.4745 12.6954C40.8734 12.5258 40.258 12.438 39.6355 12.4049C38.7612 12.3588 37.8904 12.3945 37.0196 12.4971C35.8639 12.6327 34.76 12.9432 33.6981 13.4006C33.6454 13.4232 33.599 13.4597 33.5329 13.4997C33.8535 14.4631 34.1768 15.4161 34.5189 16.4066H34.5171ZM61.3642 26.1106C61.4115 25.9828 61.3963 25.8654 61.3963 25.7498C61.3963 22.8742 61.3981 19.9986 61.3963 17.1231C61.3963 16.4126 61.2757 15.7196 61.0203 15.0535C60.4943 13.6823 59.5172 12.7927 58.0435 12.4406C57.363 12.278 56.6744 12.2415 55.9796 12.3267C55.1954 12.4232 54.4872 12.7032 53.8584 13.1701C53.4565 13.4675 53.1082 13.8179 52.7831 14.1927C52.734 14.2492 52.7009 14.3266 52.6107 14.3405C52.5375 14.2736 52.5652 14.191 52.5652 14.1179C52.5616 13.6779 52.5652 13.2379 52.5616 12.798C52.5616 12.7232 52.5473 12.6484 52.5393 12.5762C52.4151 12.5267 52.3035 12.5423 52.1945 12.5423C51.3809 12.5406 50.5673 12.5414 49.7536 12.5423C49.442 12.5423 49.1311 12.5414 48.8194 12.5449C48.7534 12.5449 48.6882 12.5675 48.6087 12.5823C48.6087 12.7154 48.6087 12.8319 48.6087 12.9475C48.6087 17.2022 48.6087 21.4568 48.6087 25.7115C48.6087 25.7898 48.6051 25.868 48.6105 25.9463C48.614 26.0019 48.6292 26.0567 48.639 26.1071C48.8864 26.1428 51.7364 26.1628 52.3874 26.1341C52.4357 26.1324 52.4821 26.1193 52.5312 26.1124C52.5804 25.9984 52.5616 25.8889 52.5625 25.7837C52.5643 24.8054 52.5634 23.8272 52.5634 22.8498C52.5634 21.4221 52.5661 19.9943 52.5616 18.5656C52.5607 18.1317 52.6107 17.7065 52.7572 17.2961C53.0064 16.5961 53.4708 16.1083 54.2165 15.8935C54.6694 15.7631 55.1266 15.7579 55.5875 15.8309C55.8572 15.8735 56.1117 15.9613 56.3457 16.1013C56.8343 16.3935 57.1183 16.8309 57.2808 17.3526C57.413 17.7769 57.4505 18.2161 57.4505 18.6569C57.4514 20.9942 57.4505 23.3324 57.4505 25.6698C57.4505 25.7672 57.4496 25.8654 57.4532 25.9628C57.455 26.0089 57.4684 26.055 57.4782 26.1132C57.5372 26.1211 57.5854 26.1315 57.6336 26.1341C58.1784 26.1576 61.1141 26.1402 61.3624 26.1106H61.3642ZM41.595 68.5911C41.6611 68.6494 41.7094 68.6981 41.7638 68.7381C43.1428 69.745 44.6888 70.3598 46.3964 70.578C47.3074 70.6945 48.2184 70.685 49.1267 70.5189C49.7536 70.4041 50.3538 70.218 50.9076 69.9076C51.6703 69.4798 52.241 68.8798 52.5821 68.0825C52.8411 67.4764 52.934 66.8425 52.926 66.1903C52.9117 65.0686 52.433 64.1747 51.5274 63.4887C51.0237 63.1069 50.4672 62.8139 49.8742 62.5957C49.1517 62.3287 48.4175 62.0913 47.6897 61.8374C47.2735 61.6922 46.8546 61.5513 46.475 61.3261C46.3223 61.2357 46.1731 61.1287 46.0508 61.0035C45.8668 60.8157 45.8088 60.5844 45.8829 60.3244C45.9481 60.0949 46.0847 59.9236 46.2875 59.7983C46.4956 59.6697 46.7242 59.6044 46.9689 59.5836C47.5057 59.5383 48.0299 59.5984 48.5479 59.7383C49.3267 59.9488 50.06 60.2618 50.7655 60.6418C50.8691 60.6974 50.9656 60.7731 51.0906 60.7809C51.1174 60.7592 51.1487 60.7444 51.1621 60.7209C51.6292 59.9001 52.0954 59.0784 52.5598 58.2567C52.5732 58.2323 52.5705 58.2001 52.5759 58.1706C52.5554 58.1471 52.5402 58.1201 52.5161 58.1036C52.4509 58.0584 52.3839 58.0149 52.3151 57.9749C51.2201 57.3306 50.0457 56.8967 48.7793 56.7019C47.8585 56.5602 46.9403 56.541 46.0231 56.7193C45.2345 56.8732 44.5057 57.1602 43.8662 57.6462C43.2402 58.121 42.7829 58.714 42.5274 59.4497C42.2711 60.1879 42.2256 60.9418 42.3595 61.707C42.4176 62.0365 42.5239 62.3513 42.682 62.6487C42.9847 63.2191 43.4304 63.6608 43.9734 64.0156C44.4771 64.3452 45.0273 64.5843 45.6007 64.7695C46.2107 64.9669 46.8278 65.1408 47.4396 65.333C47.7924 65.4443 48.1425 65.5651 48.4881 65.6956C48.7042 65.7764 48.9043 65.8903 49.0767 66.0451C49.4196 66.3512 49.425 66.7581 49.241 67.0877C49.0918 67.3555 48.8391 67.4894 48.5551 67.5781C48.1451 67.7059 47.7227 67.7077 47.3012 67.6738C46.6974 67.6251 46.1151 67.4764 45.548 67.2694C44.8397 67.0103 44.1761 66.6668 43.5519 66.2521C43.4706 66.1982 43.3866 66.1477 43.2964 66.0912C43.258 66.1251 43.2223 66.146 43.2017 66.1764C42.6632 66.9764 42.1238 67.7764 41.595 68.592V68.5911ZM60.1352 56.7819C60.1299 56.6332 60.1218 56.528 60.1218 56.4219C60.1209 55.5028 60.1218 54.5828 60.12 53.6637C60.12 53.5585 60.1379 53.4498 60.0897 53.3568C59.9861 53.2933 59.8834 53.3142 59.7851 53.3133C59.2225 53.3116 58.6598 53.3124 58.0971 53.3124C57.555 53.3124 57.012 53.3116 56.4699 53.3142C56.3725 53.3142 56.268 53.289 56.168 53.3681C56.1635 53.4264 56.1546 53.4933 56.1546 53.5603C56.1528 53.7855 56.1546 54.0098 56.1546 54.235C56.1546 54.988 56.1546 55.7411 56.1528 56.4941C56.1528 56.588 56.1814 56.6906 56.0849 56.7915C55.8411 56.7915 55.5803 56.7889 55.3204 56.7915C55.0614 56.795 54.8015 56.775 54.5327 56.8071C54.5193 56.8889 54.5006 56.9541 54.5006 57.0202C54.4988 57.9688 54.4988 58.9175 54.5006 59.8662C54.5006 59.9305 54.5229 59.9957 54.5381 60.0749C54.6506 60.0792 54.7497 60.087 54.8489 60.087C55.2008 60.0888 55.5518 60.0862 55.9036 60.0896C55.9796 60.0896 56.0555 60.1088 56.1466 60.1209C56.1493 60.2566 56.1546 60.3722 56.1546 60.4888C56.1546 62.5035 56.1546 64.5182 56.1555 66.5329C56.1555 67.072 56.2073 67.6068 56.3386 68.132C56.4592 68.6129 56.6628 69.0563 56.9772 69.4476C57.4041 69.9789 57.9792 70.2798 58.6357 70.4485C59.2126 70.5963 59.8021 70.638 60.3978 70.6267C61.1069 70.6128 61.7973 70.5041 62.4627 70.2641C62.7726 70.152 63.0745 70.0198 63.3451 69.8459C63.3513 69.8024 63.3594 69.7737 63.3594 69.745C63.3594 68.7963 63.3603 67.8477 63.3594 66.899C63.3594 66.866 63.3415 66.8321 63.3281 66.7851C63.2433 66.8173 63.1781 66.839 63.1156 66.8668C62.6922 67.0573 62.2474 67.1729 61.7839 67.2129C61.4838 67.239 61.1811 67.2494 60.8872 67.1625C60.5693 67.0694 60.3433 66.879 60.2308 66.5677C60.1531 66.3529 60.1209 66.1321 60.1209 65.906C60.1209 65.153 60.1209 64.4 60.1209 63.6469C60.1209 62.5809 60.1209 61.5148 60.1218 60.4488C60.1218 60.3435 60.0986 60.2331 60.1611 60.1322C60.2603 60.0644 60.3746 60.0888 60.4818 60.0879C61.3257 60.0862 62.1697 60.0879 63.0128 60.0853C63.1316 60.0853 63.254 60.1062 63.3674 60.0496C63.4326 59.9609 63.4103 59.8601 63.4112 59.7644C63.4139 59.3436 63.4121 58.9236 63.4121 58.5027C63.4121 58.0236 63.413 57.5445 63.4112 57.0654C63.4112 56.9802 63.4335 56.8871 63.3353 56.7967C63.2477 56.795 63.1388 56.7897 63.0289 56.7897C62.1849 56.7897 61.3409 56.7897 60.4978 56.7897C60.3889 56.7897 60.2799 56.7845 60.1343 56.7802L60.1352 56.7819ZM8.54261 31.2035C8.4917 31.3192 8.50599 31.427 8.50599 31.5322C8.5051 32.4617 8.50599 33.3913 8.50421 34.3208C8.50421 34.4252 8.53189 34.5373 8.4399 34.653C8.35595 34.6547 8.25771 34.6591 8.15857 34.6599C7.79686 34.6608 7.43515 34.6599 7.07343 34.6617C7.00645 34.6617 6.93947 34.6765 6.86802 34.6852C6.85641 34.7382 6.84122 34.7747 6.84122 34.8121C6.84122 35.8199 6.84212 36.8277 6.8448 37.8346C6.8448 37.8616 6.86355 37.8885 6.87159 37.912C6.96626 37.9772 7.06986 37.9564 7.1681 37.9564C7.52982 37.959 7.89153 37.9564 8.25324 37.9581C8.33094 37.9581 8.41579 37.9433 8.49795 38.0364C8.50063 38.1294 8.50599 38.2451 8.50599 38.3616C8.50599 39.8389 8.5051 41.3163 8.50688 42.7936C8.50778 43.4588 8.50778 44.124 8.52385 44.7892C8.53814 45.3996 8.64175 45.997 8.87842 46.5657C9.14814 47.2144 9.58666 47.7196 10.2306 48.0448C10.5539 48.2082 10.8978 48.3143 11.2541 48.383C11.8391 48.4961 12.4303 48.5204 13.0243 48.4882C13.8352 48.4439 14.614 48.27 15.3437 47.9143C15.4589 47.8578 15.5688 47.79 15.6741 47.7309C15.6831 47.6743 15.6956 47.6361 15.6956 47.5978C15.6965 46.6587 15.6965 45.7196 15.6956 44.7805C15.6956 44.7466 15.6759 44.7127 15.6643 44.6753C15.6188 44.6849 15.5875 44.6849 15.5625 44.697C15.1543 44.897 14.7203 45.0144 14.2693 45.0709C13.9397 45.1127 13.6101 45.1275 13.2815 45.0457C12.9073 44.9527 12.6706 44.7275 12.5536 44.3727C12.4813 44.1544 12.4741 43.931 12.4741 43.7058C12.4741 42.5615 12.4741 41.4163 12.4741 40.2719C12.4741 39.6163 12.4732 38.9607 12.4759 38.3051C12.4759 38.2007 12.45 38.0903 12.5161 37.9911C12.6322 37.9381 12.7545 37.9581 12.8733 37.9581C13.7173 37.9564 14.5613 37.9581 15.4053 37.9564C15.5125 37.9564 15.6241 37.9694 15.7197 37.9251C15.767 37.6459 15.7822 36.1686 15.7527 34.893C15.7509 34.8269 15.7384 34.7608 15.7313 34.6904C15.6152 34.6452 15.5044 34.6608 15.3955 34.6608C14.5417 34.6599 13.687 34.6608 12.8331 34.6591C12.7251 34.6591 12.6143 34.673 12.5063 34.6295C12.4598 34.5191 12.475 34.4104 12.475 34.3052C12.4732 33.3756 12.475 32.4461 12.4723 31.5166C12.4723 31.4122 12.5018 31.3009 12.4277 31.2079C12.1749 31.1696 9.60006 31.1505 8.72034 31.1809C8.66229 31.1826 8.60513 31.1948 8.5444 31.2026L8.54261 31.2035ZM25.4975 26.1289C25.6208 26.1315 25.7306 26.135 25.8396 26.1358C26.7238 26.1358 27.6071 26.1358 28.4912 26.1358C28.7422 26.1358 28.9932 26.1376 29.2441 26.1332C29.2995 26.1324 29.3549 26.108 29.4254 26.0906C29.4254 25.9428 29.4254 25.8063 29.4254 25.6698C29.4254 19.7934 29.4254 13.9162 29.4254 8.03984C29.4254 7.96158 29.4281 7.88332 29.4237 7.80506C29.421 7.74941 29.4085 7.69376 29.4013 7.63898C29.2915 7.59029 29.1906 7.60246 29.0914 7.60246C28.7199 7.60159 28.3483 7.60246 27.9768 7.60246C27.2534 7.60246 26.5309 7.60159 25.8074 7.60333C25.7003 7.60333 25.5859 7.57637 25.4805 7.65463C25.4743 7.68767 25.4627 7.72593 25.4627 7.76332C25.4627 13.8449 25.4627 19.9273 25.4654 26.0089C25.4654 26.0367 25.4797 26.0637 25.4975 26.1289ZM52.4518 37.3555C52.7626 37.512 53.0832 37.5546 53.4172 37.5086C53.4949 37.4981 53.5735 37.4712 53.6432 37.4355C53.7771 37.3668 53.8459 37.2564 53.8441 37.1033C53.8423 36.9068 53.7137 36.8034 53.5521 36.7355C53.2046 36.5903 52.8367 36.5147 52.4732 36.4242C52.4116 36.6312 52.4026 37.0129 52.4518 37.3555Z" fill="#E8F643"/>
<path d="M70.3679 49.2008C70.2375 49.1956 70.108 49.1852 69.9776 49.1852C64.2706 49.1852 58.5636 49.1852 52.8566 49.1834C52.728 49.1834 52.5967 49.2008 52.4564 49.1591C52.4448 49.1043 52.4288 49.0495 52.4234 48.993C52.4172 48.9347 52.4216 48.8756 52.4216 48.8173C52.4216 45.4322 52.4216 42.048 52.4216 38.6629C52.4216 38.5576 52.4038 38.4489 52.4564 38.329C52.5368 38.3359 52.6145 38.3385 52.6913 38.3489C52.9816 38.3872 53.271 38.4029 53.5621 38.3603C53.8452 38.3185 54.1051 38.2237 54.3356 38.0559C54.6544 37.8246 54.8214 37.5168 54.8321 37.1299C54.8348 37.0325 54.8384 36.9333 54.8295 36.8368C54.8027 36.5507 54.6803 36.3107 54.4427 36.1342C54.2338 35.9786 54.0006 35.8647 53.7488 35.789C53.5184 35.7195 53.2853 35.6595 53.0557 35.5882C52.9218 35.5464 52.7896 35.4986 52.6619 35.4421C52.5091 35.3751 52.4359 35.2525 52.4448 35.089C52.4538 34.9212 52.5583 34.8221 52.7074 34.7638C52.8807 34.696 53.0629 34.7056 53.2424 34.7334C53.4835 34.7699 53.705 34.8621 53.9167 34.9769C54.0024 35.0238 54.09 35.069 54.1837 35.1186C54.3865 34.9073 54.5195 34.6664 54.6883 34.4386C54.6357 34.3873 54.599 34.3412 54.5517 34.3091C53.9998 33.9326 53.3862 33.8021 52.7208 33.876C52.6342 33.8856 52.5458 33.9256 52.4431 33.8717C52.4368 33.823 52.4234 33.7665 52.4225 33.71C52.3904 32.61 52.4082 30.7979 52.4556 30.5292C52.5056 30.5187 52.5609 30.5005 52.6181 30.497C52.7181 30.4909 52.8191 30.4944 52.9191 30.4944C58.5957 30.4944 64.2733 30.4944 69.9499 30.4935C70.0901 30.4935 70.2295 30.4796 70.3697 30.4727V33.936C70.3304 33.9308 70.2902 33.9221 70.2509 33.9221C69.4873 33.9221 68.7237 33.9213 67.96 33.9221C67.9029 33.9221 67.8457 33.9386 67.793 33.9465C67.7761 33.9882 67.7564 34.0152 67.7564 34.0421C67.7537 35.4212 67.7519 36.8003 67.7519 38.1794C67.7519 38.2159 67.7698 38.2533 67.7787 38.2872C67.8984 38.3542 68.0217 38.3298 68.1396 38.3298C68.8826 38.335 69.6257 38.3359 70.3697 38.3385V42.0367C70.2866 42.0045 70.2036 41.9723 70.1205 41.9402C69.6007 41.741 69.0854 41.7445 68.5736 41.9688C68.1217 42.1671 67.8145 42.5071 67.6126 42.9358C67.3018 43.5949 67.2893 44.2792 67.5054 44.9635C67.6466 45.4122 67.9065 45.8009 68.32 46.0548C68.9898 46.4652 69.6802 46.4592 70.3697 46.087V49.1982L70.3679 49.2008ZM58.8556 35.6412C58.8753 35.6342 58.8958 35.6264 58.9155 35.6195C58.9664 35.6769 59.0209 35.7325 59.0682 35.7934C59.6594 36.5473 60.2489 37.3012 60.8401 38.0559C60.8767 38.1029 60.9151 38.1472 60.95 38.1959C61.0188 38.2907 61.1063 38.3394 61.2304 38.335C61.3912 38.3281 61.5519 38.3368 61.7127 38.3307C61.769 38.329 61.8243 38.3055 61.8726 38.2942C61.9271 38.1646 61.9083 38.0464 61.9083 37.9307C61.9101 36.816 61.9092 35.7012 61.9092 34.5865C61.9092 34.4395 61.9128 34.2925 61.9065 34.1465C61.9038 34.0812 61.8815 34.0178 61.8699 33.9595C61.5564 33.9013 61.1357 33.9099 60.916 33.9821C60.9125 34.0786 60.9053 34.1847 60.9053 34.2899C60.9044 34.9838 60.9053 35.6786 60.9035 36.3725C60.9035 36.4221 60.9357 36.4934 60.8294 36.5203C60.6633 36.309 60.4918 36.0934 60.3221 35.8768C59.8541 35.2777 59.3852 34.6795 58.9208 34.0778C58.8422 33.9752 58.7547 33.9178 58.6189 33.923C58.4385 33.9291 58.2572 33.923 58.0768 33.9273C58.0206 33.9291 57.9643 33.9499 57.8902 33.9665C57.8857 34.083 57.8786 34.1891 57.8786 34.2943C57.8777 35.1056 57.8786 35.9177 57.8786 36.729C57.8786 37.1786 57.8777 37.629 57.8803 38.0785C57.8803 38.1524 57.8982 38.2272 57.908 38.302C58.0733 38.355 58.2251 38.3368 58.3733 38.3333C58.5287 38.3298 58.6931 38.375 58.8574 38.2716V35.6447L58.8556 35.6412ZM59.9425 44.0053C59.9542 44.161 59.9586 44.3175 59.9801 44.4723C60.0363 44.8853 60.1748 45.2696 60.4329 45.6053C60.6535 45.8922 60.9214 46.1279 61.2751 46.2444C62.0967 46.5148 63.005 46.3218 63.5525 45.5235C63.7919 45.174 63.916 44.7888 63.9589 44.3731C64.0143 43.8349 63.9348 43.321 63.682 42.8375C62.9818 41.4967 61.1357 41.4619 60.3507 42.6714C60.0872 43.0784 59.9684 43.5271 59.9434 44.0053H59.9425ZM66.3105 37.0203C66.2247 37.082 66.1452 37.1386 66.0657 37.1951C65.8603 37.3403 65.6415 37.4559 65.3852 37.489C64.8806 37.5533 64.4439 37.4333 64.1277 37.0273C63.7687 36.5664 63.7267 36.0516 63.941 35.5273C64.0964 35.1464 64.3858 34.8682 64.8082 34.7769C65.2128 34.6899 65.6076 34.7386 65.9613 34.9734C66.0675 35.0447 66.1729 35.1169 66.2765 35.1873C66.4221 35.1195 66.4953 34.9977 66.5855 34.896C66.6811 34.7891 66.807 34.6986 66.8463 34.5456C66.8151 34.5117 66.7919 34.4804 66.7624 34.4543C66.3757 34.1012 65.9228 33.8873 65.3914 33.8456C64.8029 33.7995 64.2456 33.9004 63.7624 34.2465C62.9997 34.7934 62.6728 35.5429 62.8005 36.4499C62.9238 37.3229 63.4239 37.9368 64.2768 38.2603C64.6805 38.4142 65.0985 38.4185 65.5227 38.3742C66.022 38.3229 66.4426 38.1124 66.8088 37.7872C66.8517 37.7498 66.8821 37.6994 66.9339 37.6368C66.7249 37.4316 66.5605 37.1994 66.3114 37.0186L66.3105 37.0203ZM56.655 43.261C56.7354 43.1775 56.7943 43.1123 56.8577 43.0506C56.9292 42.9819 57.0015 42.9132 57.0792 42.8532C57.2623 42.7114 57.4749 42.668 57.7035 42.6993C57.9822 42.7375 58.1527 42.9175 58.1769 43.1879C58.192 43.3592 58.1661 43.5236 58.0599 43.6618C57.9643 43.7862 57.8652 43.9131 57.7446 44.0131C57.2489 44.4262 56.7434 44.827 56.245 45.2357C55.8396 45.5679 55.903 45.4201 55.8985 45.9705C55.8985 46.0653 55.8717 46.167 55.9566 46.2574C55.9985 46.2626 56.0477 46.2748 56.0968 46.2748C57.0801 46.2757 58.0634 46.2765 59.0476 46.2748C59.1039 46.2748 59.1602 46.2522 59.2111 46.2418C59.2691 45.8861 59.2575 45.6348 59.1718 45.4427C59.0709 45.4401 58.961 45.4357 58.8521 45.4348C58.4109 45.434 57.9688 45.4348 57.5276 45.4331C57.4811 45.4331 57.4249 45.4444 57.3972 45.3679C57.4436 45.327 57.4918 45.2783 57.5454 45.2374C57.6874 45.1296 57.8357 45.0279 57.9759 44.9175C58.2019 44.7392 58.4332 44.5653 58.6457 44.3731C58.9565 44.0923 59.1584 43.7488 59.1959 43.3288C59.2513 42.6993 58.961 42.1714 58.3644 41.9445C57.8669 41.7558 57.3641 41.761 56.8675 41.9549C56.5416 42.0828 56.2951 42.3097 56.0816 42.574C56.0468 42.6175 56.0262 42.6706 55.9959 42.7253C56.1897 42.9306 56.4094 43.081 56.655 43.2592V43.261ZM65.3905 42.8323C65.4486 42.9401 65.4245 43.0497 65.4245 43.1558C65.4263 44.0844 65.4245 45.0131 65.4272 45.9418C65.4272 46.0452 65.3968 46.1574 65.4727 46.2496C65.7933 46.2983 66.1944 46.2887 66.4007 46.2261C66.4462 46.1183 66.4301 46 66.4301 45.8844C66.431 44.7114 66.4301 43.5384 66.4301 42.3645C66.4301 42.2471 66.4337 42.1297 66.4275 42.0123C66.4239 41.948 66.4025 41.8836 66.3882 41.8149C66.1327 41.7941 65.8934 41.7662 65.6576 41.8315C65.3102 41.928 64.9654 42.0323 64.6207 42.1349C64.5742 42.1488 64.5305 42.1706 64.4599 42.1993C64.5207 42.4584 64.5582 42.714 64.6725 42.9488C64.9333 42.9688 65.1503 42.8227 65.3923 42.8323H65.3905ZM55.786 33.9569C55.7333 34.223 55.711 36.8829 55.7503 38.0985C55.752 38.1646 55.7681 38.2298 55.7797 38.309C56.0682 38.3533 56.3478 38.3307 56.6255 38.3255C56.6612 38.3255 56.6961 38.2959 56.7452 38.2742C56.7479 38.1655 56.7532 38.0594 56.7532 37.9533C56.7532 37.0255 56.7532 36.0977 56.7532 35.1699C56.7532 34.8377 56.7532 34.5056 56.7523 34.1734C56.7523 34.0969 56.7648 34.0152 56.6952 33.9552C56.4496 33.9099 56.0611 33.9099 55.786 33.9569Z" fill="black"/>
<path d="M32.6825 70.7464C32.5726 70.6629 32.4387 70.6629 32.3101 70.649C31.4554 70.5525 30.6337 70.3368 29.8603 69.9673C28.5795 69.3542 27.5846 68.443 26.9023 67.2178C26.4119 66.3378 26.1386 65.3944 26.0422 64.3987C25.9395 63.3431 26.0422 62.3092 26.3655 61.2979C26.7102 60.2145 27.2765 59.2511 28.1017 58.4502C29.0797 57.5015 30.2488 56.8885 31.6197 56.6546C32.8192 56.4494 34.0025 56.5077 35.1645 56.8537C36.5417 57.2642 37.6196 58.072 38.4136 59.2424C38.9986 60.1049 39.355 61.0527 39.5497 62.0623C39.6738 62.7075 39.7381 63.3596 39.7247 64.017C39.7185 64.3092 39.6926 64.6013 39.6747 64.9065C39.5934 64.9196 39.5273 64.937 39.4595 64.9405C39.3594 64.9457 39.2585 64.9422 39.1585 64.9422C36.2353 64.9422 33.3122 64.9422 30.389 64.9422C30.2595 64.9422 30.1282 64.9265 29.9907 64.9709C29.9862 65.01 29.971 65.0491 29.9799 65.0831C30.0987 65.5422 30.28 65.9743 30.5667 66.3595C31.0445 67.0021 31.7001 67.3813 32.4878 67.5239C33.3086 67.6726 34.1267 67.6421 34.9242 67.3647C35.4512 67.1813 35.9192 66.9021 36.3496 66.5595C36.4809 66.4552 36.6104 66.3482 36.7542 66.2317C37.0275 66.4326 37.2624 66.6578 37.5116 66.8674C37.7617 67.0787 38.0082 67.2952 38.2555 67.5099C38.502 67.723 38.7485 67.9369 38.9977 68.1525C38.9665 68.2682 38.8888 68.3334 38.8245 68.4038C37.842 69.4829 36.6372 70.2012 35.1841 70.5073C34.9001 70.5673 34.6107 70.6038 34.3241 70.6499C34.1963 70.6707 34.0624 70.6707 33.9498 70.7472H32.6834L32.6825 70.7464ZM29.9165 62.5057C30.1523 62.5344 35.3145 62.5536 35.7227 62.5301C35.7611 62.5275 35.7977 62.5136 35.8272 62.5066C35.8361 62.4857 35.8432 62.477 35.8432 62.4684C35.845 62.4397 35.8495 62.4101 35.8459 62.3814C35.7772 61.9232 35.636 61.4875 35.4074 61.0806C35.0573 60.4571 34.5598 59.9997 33.8543 59.7728C33.4961 59.6571 33.1291 59.6293 32.7557 59.6423C32.21 59.6615 31.7126 59.8189 31.266 60.1267C30.7489 60.4832 30.4131 60.9745 30.18 61.5362C30.0523 61.8423 29.9415 62.1562 29.9165 62.5066V62.5057Z" fill="black"/>
<path d="M70.3694 70.3935C69.044 70.3944 67.7196 70.3961 66.3942 70.3961C66.3352 70.3961 66.2763 70.3848 66.212 70.3788C66.2004 70.3361 66.1807 70.2996 66.1807 70.2622C66.1789 69.0014 66.1798 67.7406 66.1807 66.4797C66.1807 66.4432 66.2013 66.4067 66.2147 66.3623C66.2772 66.3537 66.3352 66.3389 66.3933 66.3389C67.7187 66.3389 69.0432 66.3415 70.3685 66.3432V70.3935H70.3694Z" fill="black"/>
<path d="M70.3677 38.3425C69.6246 38.3399 68.8807 38.3382 68.1376 38.3338C68.0197 38.3338 67.8965 38.3573 67.7768 38.2912C67.7679 38.2573 67.75 38.2208 67.75 38.1834C67.75 36.8043 67.7509 35.4252 67.7545 34.0461C67.7545 34.0191 67.7741 33.9931 67.7911 33.9505C67.8438 33.9426 67.9009 33.9261 67.9581 33.9261C68.7217 33.9244 69.4853 33.9244 70.2489 33.9261C70.2891 33.9261 70.3284 33.9357 70.3677 33.94V34.7617C70.2677 34.7678 70.1677 34.7774 70.0685 34.7783C69.7274 34.78 69.3862 34.7783 69.0441 34.78C68.9566 34.78 68.8682 34.7913 68.7869 34.7965C68.7199 35.0409 68.7199 35.42 68.7878 35.6634C68.878 35.6687 68.9762 35.6774 69.0745 35.6782C69.4058 35.68 69.7372 35.6774 70.0685 35.68C70.1686 35.68 70.2677 35.6939 70.3668 35.7008V36.5226C70.2668 36.5269 70.1668 36.5356 70.0676 36.5356C69.697 36.5373 69.3263 36.5356 68.9548 36.5373C68.8887 36.5373 68.8226 36.5565 68.7414 36.5695C68.7422 36.8643 68.711 37.1434 68.7673 37.4382C68.878 37.4434 68.9762 37.4521 69.0736 37.453C69.5041 37.4564 69.9355 37.4582 70.3659 37.4608V38.3416L70.3677 38.3425Z" fill="#E8F643"/>
<path d="M70.3702 46.0907C69.6807 46.4628 68.9903 46.4689 68.3205 46.0585C67.907 45.8046 67.6471 45.4159 67.506 44.9672C67.2898 44.2829 67.3023 43.5986 67.6131 42.9395C67.815 42.5117 68.1222 42.1708 68.5741 41.9725C69.085 41.7482 69.6012 41.7439 70.121 41.9438C70.2041 41.976 70.2871 42.0082 70.3702 42.0404V46.0907ZM70.3407 44.0681C70.3246 43.8829 70.3166 43.756 70.3014 43.6299C70.2692 43.3586 70.1496 43.1256 69.9584 42.929C69.6271 42.589 69.0778 42.5977 68.7599 42.9499C68.675 43.0438 68.6018 43.1534 68.5509 43.2682C68.3348 43.7551 68.3401 44.2542 68.4955 44.7551C68.5482 44.9238 68.6393 45.0759 68.7617 45.209C69.1019 45.5785 69.6887 45.5403 69.9665 45.2368C70.1308 45.0577 70.2523 44.8585 70.288 44.6203C70.3184 44.4186 70.3273 44.2133 70.3398 44.0673L70.3407 44.0681Z" fill="#E8F643"/>
<path d="M70.3668 37.4597C69.9363 37.4571 69.505 37.4554 69.0745 37.4519C68.9762 37.451 68.8789 37.4423 68.7681 37.4371C68.7119 37.1415 68.7431 36.8632 68.7422 36.5684C68.8235 36.5554 68.8896 36.5363 68.9557 36.5363C69.3263 36.5337 69.697 36.5363 70.0685 36.5345C70.1685 36.5345 70.2686 36.5258 70.3677 36.5215V37.4606L70.3668 37.4597Z" fill="black"/>
<path d="M70.3683 35.6989C70.2692 35.6919 70.1692 35.6789 70.07 35.678C69.7387 35.6754 69.4073 35.678 69.076 35.6763C68.9777 35.6763 68.8795 35.6667 68.7893 35.6615C68.7214 35.418 68.7214 35.0389 68.7884 34.7945C68.8697 34.7893 68.9572 34.778 69.0456 34.778C69.3868 34.7763 69.728 34.778 70.07 34.7763C70.1701 34.7763 70.2701 34.7659 70.3692 34.7598V35.6989H70.3683Z" fill="black"/>
<path d="M8.30242 70.3901C8.25866 70.071 8.23543 53.9636 8.27205 52.8289C8.27384 52.7724 8.28545 52.7158 8.29438 52.6437C8.36047 52.635 8.41763 52.6254 8.47479 52.6219C8.53463 52.6184 8.59536 52.6211 8.6552 52.6211C11.3587 52.6211 14.0612 52.6202 16.7647 52.6211C17.5006 52.6211 18.2294 52.6889 18.9448 52.8628C19.7932 53.0689 20.5837 53.4002 21.2553 53.9567C22.1189 54.6723 22.6271 55.5766 22.7432 56.6835C22.7986 57.2131 22.7825 57.7366 22.6762 58.2592C22.5047 59.1061 22.0769 59.8069 21.4259 60.3843C21.1954 60.5887 20.9489 60.7739 20.6828 60.933C20.6069 60.9782 20.5354 61.0304 20.4649 61.0773C20.5086 61.1912 20.614 61.1904 20.6908 61.2278C20.9954 61.3782 21.308 61.5121 21.6072 61.6712C21.9608 61.8599 22.2806 62.0973 22.5717 62.3703C23.154 62.9173 23.514 63.586 23.6774 64.3511C23.8301 65.0668 23.8426 65.7885 23.7033 66.5093C23.4872 67.6302 22.895 68.5171 21.9376 69.1745C21.2883 69.6206 20.5658 69.9075 19.8004 70.0919C18.9189 70.3049 18.0204 70.3962 17.1139 70.3971C14.3006 70.3997 11.4864 70.3979 8.67306 70.3971C8.55428 70.3971 8.43549 70.3927 8.3042 70.3892L8.30242 70.3901ZM12.2187 66.9546C12.3411 67.0006 12.4626 66.9841 12.5804 66.9841C13.996 66.985 15.4116 66.9885 16.8263 66.9824C17.1469 66.9806 17.4694 66.9633 17.7873 66.9259C18.1669 66.8815 18.5348 66.7833 18.8751 66.6041C19.2824 66.3894 19.5655 66.072 19.7111 65.645C19.8111 65.3529 19.8209 65.0503 19.7906 64.7459C19.7468 64.3181 19.5601 63.9616 19.2225 63.6825C19.0216 63.5155 18.7938 63.3955 18.5465 63.3068C18.0401 63.1251 17.5131 63.0634 16.979 63.0616C15.4938 63.0573 14.0076 63.0599 12.5224 63.0599C12.4724 63.0599 12.4215 63.0555 12.3723 63.0625C12.3161 63.0703 12.2616 63.0894 12.1884 63.1077C12.1884 64.3581 12.1848 65.5989 12.1928 66.8389C12.1928 66.8754 12.2107 66.9119 12.2214 66.9537L12.2187 66.9546ZM12.2169 59.7808C12.3509 59.8269 12.4724 59.813 12.5912 59.8139C13.6656 59.8148 14.7391 59.8174 15.8135 59.8122C16.1038 59.8113 16.3958 59.8008 16.6843 59.7695C17.0942 59.7243 17.4944 59.6339 17.8641 59.4426C18.2026 59.267 18.467 59.0209 18.625 58.6783C18.7947 58.3105 18.8287 57.9235 18.7554 57.5305C18.6661 57.0505 18.3964 56.6896 17.9641 56.4436C17.7373 56.314 17.4944 56.2227 17.2389 56.1644C16.8656 56.0792 16.4851 56.0418 16.1038 56.0401C14.8891 56.034 13.6745 56.0375 12.4599 56.0392C12.3822 56.0392 12.3045 56.0549 12.2187 56.0644C12.2062 56.1244 12.1919 56.1705 12.1893 56.2175C12.1607 56.7096 12.1821 59.5556 12.2178 59.7826L12.2169 59.7808Z" fill="black"/>
<path d="M12.3376 20.8284C12.2652 20.9267 12.2902 21.0267 12.2893 21.1223C12.2866 21.7284 12.2875 22.3353 12.2875 22.9414C12.2875 23.8901 12.2875 24.8387 12.2866 25.7874C12.2866 25.8926 12.3108 26.0022 12.25 26.1048C12.2223 26.1135 12.1947 26.13 12.1661 26.13C10.9202 26.1317 9.67517 26.1335 8.42928 26.1326C8.39087 26.1326 8.35336 26.1187 8.30067 26.1082C8.29174 26.0483 8.27834 25.9926 8.27566 25.9361C8.27119 25.8387 8.27387 25.7404 8.27387 25.643C8.27387 20.0293 8.27387 14.4147 8.27477 8.80092C8.27477 8.66701 8.24887 8.52875 8.31228 8.38441C8.38194 8.37658 8.44982 8.36441 8.51769 8.36354C8.74901 8.36093 8.97944 8.36267 9.21075 8.36267C11.3908 8.36267 13.5709 8.35832 15.7501 8.36528C16.5548 8.36789 17.3542 8.44875 18.1339 8.65571C19.1467 8.92439 20.0639 9.37221 20.8445 10.0652C21.4563 10.6078 21.9144 11.2574 22.2288 11.9991C22.6736 13.0504 22.8049 14.1469 22.6914 15.2764C22.6316 15.8738 22.503 16.4537 22.2708 17.0102C21.851 18.0154 21.1803 18.8267 20.2729 19.4545C19.4146 20.0484 18.4554 20.4032 17.431 20.6093C16.7397 20.7484 16.0413 20.8067 15.3357 20.8032C14.4417 20.798 13.5477 20.8014 12.6537 20.8032C12.5448 20.8032 12.4331 20.7875 12.3367 20.8293L12.3376 20.8284ZM12.3224 17.3215C12.3885 17.3276 12.4376 17.3355 12.4867 17.3355C13.5406 17.3346 14.5953 17.3346 15.6492 17.3294C16.0743 17.3276 16.4861 17.2476 16.8853 17.1033C17.2961 16.9555 17.6569 16.7337 17.9588 16.4216C18.8037 15.5486 18.8314 14.1521 18.3527 13.2704C18.0463 12.706 17.5551 12.3547 16.9514 12.1339C16.4941 11.9669 16.0172 11.9008 15.534 11.8965C14.54 11.8869 13.5459 11.893 12.5519 11.8939C12.4751 11.8939 12.3974 11.9113 12.3099 11.9217C12.3018 12.0156 12.2902 12.0921 12.2893 12.1686C12.2554 14.0269 12.2724 17.0224 12.3233 17.3215H12.3224Z" fill="black"/>
<path d="M22.683 36.4945C22.8116 36.4049 22.8777 36.3058 22.9536 36.2188C23.2822 35.8467 23.6431 35.5084 24.0521 35.2197C24.6076 34.8276 25.2248 34.5815 25.8991 34.4771C26.7458 34.345 27.5817 34.3997 28.4016 34.6415C29.5635 34.9841 30.3959 35.7049 30.9211 36.7623C31.3123 37.551 31.4775 38.3927 31.4784 39.264C31.4811 42.1691 31.4793 45.0734 31.4784 47.9785C31.4784 48.0559 31.4712 48.1341 31.4677 48.2254C31.4087 48.2411 31.3542 48.2654 31.2989 48.2672C31.1381 48.2733 30.9773 48.2707 30.8166 48.2707C29.8422 48.2707 28.8678 48.2707 27.8934 48.2707C27.7844 48.2707 27.6755 48.2646 27.5817 48.262C27.5076 48.1515 27.5281 48.0507 27.5281 47.955C27.5254 47.5733 27.5272 47.1924 27.5272 46.8107C27.5272 44.9325 27.5272 43.0552 27.5272 41.1769C27.5272 40.8839 27.5237 40.59 27.5085 40.297C27.4861 39.8631 27.3888 39.4457 27.1887 39.0544C26.8476 38.3849 26.2813 38.0257 25.532 37.9362C25.1623 37.8918 24.7898 37.9005 24.4237 37.9857C23.8619 38.1179 23.4162 38.4109 23.1009 38.8866C22.8384 39.2822 22.7205 39.7248 22.6696 40.1857C22.6499 40.3604 22.649 40.537 22.649 40.7126C22.6481 43.0995 22.649 45.4855 22.6472 47.8724C22.6472 47.9881 22.641 48.1046 22.6383 48.2141C22.5347 48.2924 22.4311 48.268 22.3347 48.268C21.722 48.2707 21.1093 48.2689 20.4966 48.2698C20.0045 48.2698 19.5124 48.2698 19.0203 48.2698C18.9221 48.2698 18.8238 48.2611 18.7095 48.255C18.697 48.1854 18.6827 48.1298 18.6791 48.0741C18.6738 47.9768 18.6765 47.8785 18.6765 47.7811C18.6765 41.9326 18.6765 36.0832 18.6765 30.2347C18.6765 30.0894 18.6845 29.9442 18.6881 29.8199C18.7809 29.7268 18.8756 29.7451 18.9631 29.7442C19.315 29.7416 19.666 29.7425 20.0179 29.7425C20.7717 29.7425 21.5246 29.7425 22.2784 29.7425C22.3873 29.7425 22.499 29.7277 22.6008 29.7738C22.6723 29.8764 22.6464 29.9868 22.6472 30.092C22.6499 30.6303 22.6481 31.1677 22.6481 31.7059C22.6481 33.1824 22.6481 34.6597 22.6481 36.1362C22.6481 36.2423 22.633 36.3501 22.683 36.4919V36.4945Z" fill="black"/>
<path d="M38.2381 42.8451C38.2381 42.9025 38.2256 42.9625 38.2399 43.0155C38.4435 43.7651 38.8231 44.4068 39.4759 44.8729C39.8127 45.1129 40.1869 45.2737 40.5932 45.3642C41.5408 45.5755 42.4679 45.5137 43.3708 45.1607C43.8701 44.965 44.3086 44.6746 44.7141 44.3329C44.8043 44.2572 44.8972 44.1842 44.9838 44.1129C45.2178 44.2546 47.0585 45.8424 47.2327 46.0528C47.1987 46.1033 47.1666 46.1624 47.1228 46.212C46.2074 47.2502 45.0767 47.9615 43.7147 48.3128C42.8528 48.5345 41.9749 48.6162 41.0871 48.5649C39.9511 48.5006 38.8615 48.2502 37.8567 47.7128C36.2804 46.8702 35.2069 45.6129 34.6451 43.9494C34.2986 42.9225 34.1976 41.8677 34.2905 40.7921C34.37 39.8652 34.6049 38.98 35.0282 38.147C35.8436 36.5427 37.0985 35.4018 38.8347 34.7853C39.4518 34.5662 40.0967 34.4558 40.7504 34.4219C41.6087 34.3775 42.4554 34.4575 43.2851 34.688C44.6417 35.0645 45.7179 35.8236 46.5369 36.9348C47.0522 37.6348 47.3952 38.4139 47.631 39.24C47.8748 40.0939 47.9766 40.9669 47.9784 41.8512C47.9784 42.1147 47.948 42.3782 47.9275 42.6408C47.9239 42.6869 47.9016 42.7321 47.8882 42.7738C47.7498 42.8208 47.6176 42.8016 47.489 42.8016C44.5346 42.8025 41.5801 42.8016 38.6257 42.8042C38.498 42.8042 38.3649 42.7755 38.2372 42.8451H38.2381ZM44.0817 40.3817C44.0817 40.3052 44.0925 40.2374 44.08 40.1739C43.9898 39.7209 43.854 39.2826 43.6146 38.8809C43.3146 38.3765 42.9109 37.9835 42.3571 37.7444C41.8775 37.5374 41.3747 37.467 40.8576 37.5192C40.1413 37.5913 39.5269 37.8739 39.0481 38.4087C38.5739 38.9383 38.3033 39.5617 38.1738 40.2478C38.1666 40.2852 38.1729 40.3243 38.1729 40.3626C38.2086 40.3782 38.2354 40.3991 38.2622 40.3991C40.1494 40.4026 42.0365 40.4052 43.9246 40.406C43.9728 40.406 44.0201 40.3913 44.0826 40.3817H44.0817Z" fill="black"/>
<path d="M34.5178 16.4043C34.1749 15.4139 33.8525 14.4608 33.5318 13.4974C33.5979 13.4574 33.6444 13.4209 33.6971 13.3983C34.7599 12.9409 35.8629 12.6305 37.0186 12.4948C37.8884 12.3922 38.7601 12.3566 39.6345 12.4026C40.257 12.4357 40.8723 12.5235 41.4734 12.6931C42.1254 12.8774 42.7309 13.1505 43.2704 13.5583C43.8875 14.0261 44.3305 14.62 44.6386 15.3147C44.8798 15.8573 45.0191 16.4243 45.1013 17.0095C45.1557 17.3982 45.1745 17.7877 45.1745 18.179C45.1745 20.6928 45.1745 23.2058 45.1745 25.7197C45.1745 25.8449 45.1906 25.9718 45.145 26.1083C45.0932 26.117 45.0459 26.1309 44.9985 26.1309C43.8437 26.1318 42.6881 26.1318 41.5333 26.1309C41.494 26.1309 41.4547 26.1214 41.4234 26.1179C41.3394 26.0553 41.3537 25.9718 41.3528 25.8962C41.3502 25.6031 41.3528 25.3092 41.3484 25.0162C41.3475 24.9414 41.3323 24.8666 41.3234 24.7945C41.2082 24.7858 41.1662 24.8614 41.1117 24.9127C40.7705 25.2336 40.3999 25.5144 39.9837 25.7388C39.4505 26.0266 38.8816 26.2075 38.2832 26.3031C37.7063 26.3953 37.1266 26.4257 36.5425 26.3709C35.6173 26.2857 34.7474 26.044 33.9846 25.5084C33.1112 24.8953 32.5896 24.0649 32.4003 23.0363C32.2895 22.4328 32.294 21.8276 32.4128 21.2267C32.6476 20.0389 33.3184 19.1564 34.4098 18.5799C35.0073 18.2642 35.6503 18.0781 36.3184 17.9703C37.5607 17.7703 38.8003 17.7981 40.0328 18.039C40.3668 18.1042 40.6937 18.2051 41.0233 18.2903C41.1287 18.3173 41.2287 18.3668 41.343 18.3607C41.3573 18.326 41.377 18.2999 41.377 18.2729C41.3805 17.8294 41.326 17.3964 41.1287 16.9877C40.9241 16.5651 40.6062 16.2512 40.1811 16.0391C39.9569 15.9269 39.7211 15.8469 39.4746 15.7912C38.9111 15.6643 38.3395 15.6582 37.767 15.6912C36.7685 15.7495 35.8003 15.9556 34.8617 16.2921C34.759 16.3286 34.6545 16.3591 34.516 16.4043H34.5178ZM38.9164 20.1416C38.4288 20.1555 37.9206 20.1929 37.433 20.3685C37.1373 20.4746 36.8667 20.6207 36.6452 20.8415C36.2549 21.232 36.1245 21.7093 36.1683 22.2406C36.2067 22.7093 36.4309 23.0745 36.8265 23.3397C37.0954 23.5206 37.3954 23.6249 37.7152 23.6832C37.9831 23.7319 38.2546 23.7362 38.5252 23.7284C39.0638 23.7136 39.5809 23.6006 40.065 23.3693C40.5356 23.1441 40.9161 22.8232 41.1698 22.3667C41.4556 21.8519 41.4556 21.2972 41.4234 20.7381C41.4207 20.6981 41.3796 20.6494 41.3421 20.6233C41.2948 20.5902 41.2332 20.5746 41.1778 20.5528C40.4597 20.2746 39.7104 20.1642 38.9164 20.1416Z" fill="black"/>
<path d="M61.3642 26.1107C61.1159 26.1403 58.1803 26.1568 57.6355 26.1342C57.5872 26.1325 57.5399 26.122 57.4801 26.1133C57.4702 26.0551 57.4569 26.009 57.4551 25.9629C57.4506 25.8655 57.4524 25.7673 57.4524 25.6699C57.4524 23.3326 57.4524 20.9944 57.4524 18.657C57.4524 18.2153 57.4149 17.7771 57.2827 17.3527C57.1201 16.8319 56.8361 16.3936 56.3476 16.1015C56.1136 15.9615 55.8591 15.8736 55.5893 15.831C55.1285 15.758 54.6712 15.7632 54.2184 15.8936C53.4727 16.1084 53.0082 16.5962 52.7591 17.2962C52.6135 17.7066 52.5626 18.1318 52.5635 18.5657C52.567 19.9935 52.5653 21.4213 52.5653 22.85C52.5653 23.8282 52.5653 24.8064 52.5644 25.7838C52.5644 25.889 52.5822 25.9977 52.5331 26.1125C52.4849 26.1203 52.4375 26.1325 52.3893 26.1342C51.7382 26.1629 48.8874 26.1429 48.6409 26.1073C48.632 26.0568 48.6168 26.002 48.6123 25.9464C48.607 25.8681 48.6105 25.7899 48.6105 25.7116C48.6105 21.457 48.6105 17.2023 48.6105 12.9476C48.6105 12.8311 48.6105 12.7146 48.6105 12.5824C48.6909 12.5676 48.7561 12.5459 48.8213 12.545C49.133 12.5407 49.4438 12.5424 49.7555 12.5424C50.5691 12.5424 51.3828 12.5424 52.1964 12.5424C52.3054 12.5424 52.417 12.5268 52.5411 12.5763C52.5492 12.6494 52.5626 12.7233 52.5635 12.7981C52.5662 13.2381 52.5635 13.678 52.567 14.118C52.567 14.1911 52.5394 14.2737 52.6126 14.3406C52.7028 14.3267 52.7358 14.2493 52.785 14.1928C53.1092 13.818 53.4584 13.4676 53.8603 13.1702C54.4899 12.7042 55.1973 12.4233 55.9814 12.3268C56.6763 12.2416 57.364 12.2781 58.0454 12.4407C59.5182 12.7929 60.4961 13.6815 61.0222 15.0537C61.2776 15.7197 61.3982 16.4119 61.3982 17.1232C61.4 19.9987 61.3982 22.8743 61.3982 25.7499C61.3982 25.8655 61.4125 25.9829 61.366 26.1107H61.3642Z" fill="black"/>
<path d="M41.5938 68.5896C42.1234 67.7731 42.6628 66.974 43.2005 66.174C43.221 66.1436 43.2558 66.1236 43.2951 66.0888C43.3853 66.1453 43.4693 66.1958 43.5506 66.2497C44.1757 66.6645 44.8384 67.0079 45.5467 67.267C46.1138 67.474 46.6952 67.6227 47.2999 67.6714C47.7214 67.7053 48.1439 67.7044 48.5538 67.5757C48.8378 67.487 49.0906 67.3531 49.2397 67.0853C49.4237 66.7558 49.4183 66.3497 49.0754 66.0427C48.903 65.8888 48.7021 65.774 48.4868 65.6932C48.1403 65.5636 47.7911 65.4419 47.4383 65.3306C46.8265 65.1384 46.2094 64.9645 45.5994 64.7671C45.026 64.581 44.4758 64.3419 43.9721 64.0132C43.4291 63.6584 42.9834 63.2167 42.6807 62.6463C42.5226 62.3489 42.4163 62.0333 42.3583 61.7046C42.2243 60.9394 42.2698 60.1855 42.5262 59.4473C42.7816 58.7116 43.2389 58.1186 43.8649 57.6438C44.5044 57.1586 45.2332 56.8708 46.0218 56.7169C46.939 56.5378 47.8572 56.5578 48.778 56.6995C50.0453 56.8943 51.2189 57.3282 52.3138 57.9725C52.3826 58.0125 52.4496 58.056 52.5148 58.1012C52.538 58.1177 52.5541 58.1447 52.5746 58.1682C52.5692 58.1977 52.5719 58.2299 52.5585 58.2543C52.0941 59.0768 51.6279 59.8977 51.1608 60.7185C51.1474 60.742 51.1161 60.7568 51.0894 60.7785C50.9643 60.7707 50.8679 60.6951 50.7643 60.6394C50.0587 60.2594 49.3255 59.9464 48.5467 59.736C48.0286 59.596 47.5035 59.5351 46.9676 59.5812C46.7238 59.602 46.4943 59.6673 46.2862 59.796C46.0834 59.9212 45.9468 60.0925 45.8816 60.322C45.8075 60.582 45.8664 60.8133 46.0495 61.0011C46.1719 61.1264 46.321 61.2333 46.4737 61.3237C46.8524 61.5489 47.2722 61.6898 47.6884 61.835C48.4163 62.0889 49.1504 62.3263 49.8729 62.5933C50.466 62.8124 51.0224 63.1046 51.5261 63.4863C52.4308 64.1723 52.9095 65.0662 52.9247 66.1879C52.9336 66.8401 52.8408 67.474 52.5809 68.0801C52.2397 68.8774 51.6699 69.4774 50.9063 69.9052C50.3525 70.2157 49.7524 70.4017 49.1254 70.5165C48.218 70.6826 47.307 70.6922 46.3951 70.5756C44.6875 70.3565 43.1415 69.7418 41.7625 68.7357C41.7072 68.6957 41.6598 68.6461 41.5938 68.5887V68.5896Z" fill="black"/>
<path d="M60.1358 56.7816C60.2814 56.786 60.3903 56.7912 60.4993 56.7912C61.3433 56.7912 62.1873 56.7912 63.0304 56.7912C63.1393 56.7912 63.2483 56.7955 63.3367 56.7981C63.4341 56.8886 63.4126 56.9816 63.4126 57.0668C63.4144 57.5459 63.4135 58.0251 63.4135 58.5042C63.4135 58.925 63.4144 59.345 63.4126 59.7659C63.4126 59.8615 63.435 59.9624 63.3689 60.0511C63.2554 60.1076 63.1331 60.0867 63.0143 60.0867C62.1703 60.0885 61.3263 60.0867 60.4832 60.0893C60.3751 60.0893 60.2617 60.065 60.1626 60.1337C60.101 60.2346 60.1242 60.3441 60.1233 60.4502C60.1215 61.5163 60.1224 62.5823 60.1224 63.6484C60.1224 64.4014 60.1224 65.1544 60.1224 65.9074C60.1224 66.1344 60.1545 66.3544 60.2322 66.5692C60.3448 66.8804 60.5707 67.0709 60.8887 67.1639C61.1834 67.25 61.4853 67.2396 61.7854 67.2144C62.2489 67.1744 62.6937 67.0587 63.117 66.8683C63.1795 66.8405 63.2447 66.8187 63.3296 66.7865C63.343 66.8335 63.3608 66.8665 63.3608 66.9004C63.3626 67.8491 63.3617 68.7978 63.3608 69.7465C63.3608 69.7751 63.3528 69.8038 63.3465 69.8473C63.0759 70.0212 62.774 70.1534 62.4641 70.2656C61.7988 70.5056 61.1075 70.6143 60.3993 70.6282C59.8035 70.6395 59.2141 70.5977 58.6371 70.4499C57.9807 70.2812 57.4046 69.9804 56.9786 69.4491C56.6642 69.0578 56.4615 68.6143 56.34 68.1335C56.2079 67.6083 56.157 67.0735 56.157 66.5344C56.1552 64.5196 56.157 62.5049 56.1561 60.4902C56.1561 60.3737 56.1507 60.258 56.148 60.1224C56.0569 60.1102 55.981 60.0911 55.9051 60.0911C55.5532 60.0876 55.2022 60.0911 54.8503 60.0885C54.7512 60.0885 54.6521 60.0806 54.5395 60.0763C54.5243 59.9963 54.502 59.932 54.502 59.8676C54.4993 58.9189 54.4993 57.9703 54.502 57.0216C54.502 56.9564 54.5217 56.8912 54.5342 56.8086C54.8039 56.7764 55.0638 56.7964 55.3219 56.7929C55.5827 56.7894 55.8426 56.7929 56.0864 56.7929C56.1829 56.692 56.1543 56.5894 56.1543 56.4955C56.157 55.7425 56.1561 54.9895 56.1561 54.2365C56.1561 54.0113 56.1552 53.7869 56.1561 53.5617C56.1561 53.4947 56.165 53.4287 56.1695 53.3695C56.2695 53.2904 56.374 53.3156 56.4713 53.3156C57.0135 53.313 57.5565 53.3139 58.0986 53.3139C58.6613 53.3139 59.2239 53.313 59.7866 53.3148C59.8848 53.3148 59.9875 53.2939 60.0911 53.3582C60.1394 53.4513 60.1215 53.5608 60.1215 53.6652C60.1233 54.5843 60.1215 55.5043 60.1233 56.4234C60.1233 56.5294 60.1313 56.6347 60.1367 56.7834L60.1358 56.7816Z" fill="black"/>
<path d="M8.54302 31.2028C8.60375 31.195 8.66091 31.1828 8.71896 31.1811C9.59868 31.1506 12.1735 31.1698 12.4263 31.208C12.5013 31.3011 12.4709 31.4132 12.4709 31.5167C12.4736 32.4462 12.4709 33.3758 12.4736 34.3053C12.4736 34.4105 12.4584 34.5192 12.5049 34.6297C12.6129 34.6731 12.7237 34.6592 12.8318 34.6592C13.6856 34.6601 14.5403 34.6592 15.3941 34.661C15.5022 34.661 15.6138 34.6462 15.7299 34.6905C15.738 34.761 15.7505 34.827 15.7514 34.8931C15.7817 36.1688 15.7656 37.647 15.7183 37.9252C15.6218 37.9696 15.5111 37.9557 15.4039 37.9565C14.5599 37.9574 13.7159 37.9565 12.8719 37.9583C12.7532 37.9583 12.6308 37.9383 12.5147 37.9913C12.4486 38.0904 12.4754 38.2009 12.4745 38.3052C12.4718 38.9608 12.4727 39.6165 12.4727 40.2721C12.4727 41.4164 12.4727 42.5616 12.4727 43.7059C12.4727 43.9311 12.4799 44.1555 12.5522 44.3729C12.6692 44.7276 12.9059 44.9528 13.2801 45.0459C13.6088 45.1276 13.9374 45.1128 14.2679 45.0711C14.7189 45.0146 15.153 44.8972 15.5611 44.6972C15.5861 44.685 15.6174 44.685 15.6629 44.6755C15.6745 44.7129 15.6942 44.7468 15.6942 44.7807C15.696 45.7198 15.696 46.6589 15.6942 47.598C15.6942 47.6362 15.6826 47.6745 15.6728 47.731C15.5674 47.7902 15.4575 47.8589 15.3423 47.9145C14.6126 48.2701 13.8347 48.4441 13.0229 48.4884C12.429 48.5206 11.8377 48.4962 11.2527 48.3832C10.8964 48.3145 10.5525 48.2084 10.2292 48.0449C9.58528 47.7197 9.14587 47.2136 8.87704 46.5658C8.64036 45.9972 8.53676 45.3998 8.52247 44.7894C8.5064 44.1242 8.5064 43.459 8.5055 42.7938C8.50372 41.3164 8.5055 39.8391 8.50461 38.3617C8.50461 38.2452 8.49925 38.1296 8.49657 38.0365C8.4153 37.9435 8.32956 37.9591 8.25186 37.9583C7.89015 37.9565 7.52844 37.9583 7.16672 37.9565C7.06848 37.9565 6.96488 37.9765 6.87021 37.9122C6.86128 37.8887 6.84342 37.8617 6.84342 37.8348C6.84074 36.827 6.83984 35.8192 6.83984 34.8123C6.83984 34.7749 6.85503 34.7384 6.86664 34.6853C6.93809 34.6766 7.00507 34.6618 7.07205 34.6618C7.43377 34.6592 7.79548 34.6618 8.15719 34.6601C8.25633 34.6601 8.35546 34.6557 8.43852 34.6531C8.53051 34.5375 8.50283 34.4253 8.50283 34.321C8.5055 33.3914 8.50372 32.4619 8.50461 31.5324C8.50461 31.4271 8.49121 31.3185 8.54123 31.2037L8.54302 31.2028Z" fill="black"/>
<path d="M25.4958 26.129C25.4779 26.0647 25.4636 26.0368 25.4636 26.009C25.4618 19.9275 25.4609 13.845 25.4609 7.76346C25.4609 7.72607 25.4734 7.68781 25.4788 7.65477C25.5833 7.57738 25.6985 7.60433 25.8057 7.60346C26.5291 7.60086 27.2516 7.6026 27.9751 7.6026C28.3466 7.6026 28.7181 7.6026 29.0897 7.6026C29.1888 7.6026 29.2897 7.59042 29.3996 7.63912C29.4076 7.6939 29.4192 7.74955 29.4219 7.8052C29.4264 7.88346 29.4237 7.96172 29.4237 8.03997C29.4237 13.9163 29.4237 19.7935 29.4237 25.6699C29.4237 25.8064 29.4237 25.9421 29.4237 26.0908C29.3531 26.1081 29.2978 26.1316 29.2424 26.1334C28.9914 26.1377 28.7405 26.136 28.4895 26.136C27.6053 26.136 26.722 26.136 25.8378 26.136C25.728 26.136 25.619 26.1316 25.4958 26.129Z" fill="black"/>
<path d="M52.4535 37.3541C52.4043 37.0115 52.4133 36.6298 52.4749 36.4229C52.8384 36.5133 53.2073 36.5889 53.5538 36.7341C53.7154 36.802 53.8432 36.9054 53.8458 37.102C53.8476 37.255 53.7788 37.3654 53.6449 37.4341C53.5752 37.4698 53.4966 37.4959 53.4189 37.5072C53.0849 37.5533 52.7643 37.5106 52.4535 37.3541Z" fill="black"/>
<path d="M58.8579 35.6421V38.2689C58.6927 38.3733 58.5292 38.3272 58.3738 38.3307C58.2256 38.3342 58.0737 38.3524 57.9085 38.2994C57.8987 38.2246 57.8817 38.1507 57.8808 38.0759C57.8782 37.6264 57.879 37.1759 57.879 36.7264C57.879 35.9151 57.879 35.103 57.879 34.2917C57.879 34.1865 57.8862 34.0804 57.8907 33.9639C57.9648 33.9473 58.0202 33.9265 58.0773 33.9247C58.2577 33.9195 58.439 33.9273 58.6194 33.9204C58.7543 33.9152 58.8418 33.9734 58.9213 34.0752C59.3857 34.6769 59.8546 35.2751 60.3226 35.8742C60.4923 36.0916 60.6638 36.3073 60.8299 36.5177C60.9353 36.4916 60.9031 36.4194 60.904 36.3699C60.9067 35.676 60.9049 34.9812 60.9058 34.2873C60.9058 34.1821 60.913 34.076 60.9165 33.9795C61.1362 33.9073 61.5569 33.8995 61.8704 33.9569C61.882 34.0143 61.9043 34.0786 61.907 34.1438C61.9133 34.2899 61.9097 34.4369 61.9097 34.5838C61.9097 35.6986 61.9097 36.8133 61.9088 37.9281C61.9088 38.0437 61.9275 38.162 61.8731 38.2916C61.8248 38.3029 61.7686 38.3263 61.7132 38.3281C61.5524 38.3333 61.3917 38.3255 61.2309 38.3324C61.1068 38.3376 61.0192 38.2881 60.9505 38.1933C60.9156 38.1455 60.8772 38.1003 60.8406 38.0533C60.2503 37.2994 59.6599 36.5446 59.0687 35.7908C59.0213 35.7299 58.9669 35.6751 58.916 35.6168C58.8963 35.6238 58.8758 35.6316 58.8561 35.6386L58.8579 35.6421Z" fill="#E8F643"/>
<path d="M59.9423 44.0066C59.9673 43.5292 60.0861 43.0796 60.3496 42.6727C61.1337 41.4631 62.9798 41.4979 63.6809 42.8388C63.9336 43.3214 64.0131 43.8361 63.9578 44.3744C63.9149 44.79 63.7907 45.1752 63.5514 45.5248C63.0039 46.323 62.0956 46.5169 61.2739 46.2456C60.9203 46.1291 60.6523 45.8935 60.4317 45.6065C60.1736 45.27 60.0352 44.8857 59.9789 44.4735C59.9584 44.3187 59.9539 44.1622 59.9414 44.0066H59.9423ZM62.9503 44.0744C62.9432 43.9674 62.9405 43.8596 62.928 43.7535C62.8949 43.4866 62.7967 43.244 62.635 43.0257C62.2707 42.5353 61.5472 42.5857 61.2445 43.0814C61.1462 43.2422 61.0685 43.4083 61.0292 43.5935C60.9551 43.9439 60.9613 44.2926 61.0489 44.6387C61.1025 44.8509 61.2007 45.0413 61.3499 45.2048C61.5446 45.4187 61.791 45.5004 62.0795 45.4683C62.3734 45.4361 62.5734 45.2709 62.7181 45.0317C62.8967 44.7361 62.9548 44.4126 62.9512 44.0744H62.9503Z" fill="#E8F643"/>
<path d="M66.3112 37.0206C66.5604 37.2015 66.7248 37.4337 66.9337 37.6389C66.8819 37.7024 66.8507 37.7519 66.8087 37.7893C66.4425 38.1136 66.0219 38.3241 65.5226 38.3762C65.0984 38.4197 64.6804 38.4154 64.2767 38.2623C63.4238 37.938 62.9237 37.3241 62.8004 36.452C62.6727 35.545 62.9996 34.7955 63.7623 34.2485C64.2446 33.9025 64.8019 33.8007 65.3913 33.8477C65.9218 33.8894 66.3755 34.1033 66.7623 34.4564C66.7908 34.4824 66.815 34.5138 66.8462 34.5477C66.8069 34.7007 66.6819 34.7911 66.5854 34.8981C66.4943 34.999 66.422 35.1207 66.2764 35.1894C66.1728 35.119 66.0683 35.0459 65.9611 34.9755C65.6075 34.7398 65.2127 34.6911 64.8081 34.779C64.3857 34.8703 64.0963 35.1476 63.9409 35.5294C63.7275 36.0537 63.7685 36.5685 64.1276 37.0293C64.4446 37.4354 64.8814 37.5554 65.3851 37.4911C65.6423 37.458 65.8602 37.3424 66.0656 37.1972C66.1451 37.1406 66.2246 37.0841 66.3103 37.0224L66.3112 37.0206Z" fill="#E8F643"/>
<path d="M56.6591 43.2617C56.4126 43.0834 56.1929 42.933 55.9999 42.7278C56.0303 42.6738 56.0509 42.6199 56.0857 42.5765C56.2991 42.3121 56.5456 42.0843 56.8716 41.9573C57.3682 41.7634 57.871 41.7582 58.3685 41.9469C58.9651 42.173 59.2554 42.7008 59.2 43.3312C59.1625 43.7512 58.9606 44.0947 58.6498 44.3755C58.4373 44.5677 58.2059 44.7416 57.98 44.9199C57.8398 45.0303 57.6915 45.132 57.5495 45.2399C57.4959 45.2807 57.4477 45.3294 57.4012 45.3703C57.4289 45.4468 57.4852 45.4355 57.5316 45.4355C57.9728 45.4372 58.4149 45.4355 58.8561 45.4372C58.9651 45.4372 59.0741 45.4425 59.1759 45.4451C59.2616 45.6372 59.2723 45.8885 59.2152 46.2442C59.1643 46.2555 59.108 46.2772 59.0517 46.2772C58.0684 46.279 57.0851 46.279 56.1009 46.2772C56.0517 46.2772 56.0035 46.265 55.9607 46.2598C55.8767 46.1694 55.9017 46.0668 55.9026 45.9729C55.9071 45.4225 55.8437 45.5703 56.2491 45.2381C56.7484 44.8294 57.2539 44.4286 57.7487 44.0155C57.8692 43.9155 57.9684 43.7886 58.0639 43.6643C58.1702 43.526 58.1961 43.3608 58.1809 43.1904C58.1568 42.9191 57.9862 42.7391 57.7076 42.7017C57.4798 42.6704 57.2664 42.7138 57.0833 42.8556C57.0047 42.9164 56.9333 42.9851 56.8618 43.053C56.7984 43.1138 56.7394 43.1799 56.6591 43.2634V43.2617Z" fill="#E8F643"/>
<path d="M65.3934 42.8325C65.1513 42.823 64.9343 42.9691 64.6735 42.9491C64.5592 42.7143 64.5217 42.4595 64.4609 42.1995C64.5315 42.1708 64.5753 42.1491 64.6217 42.1352C64.9673 42.0326 65.3121 41.9282 65.6586 41.8317C65.8944 41.7665 66.1346 41.7943 66.3892 41.8152C66.4035 41.8847 66.4249 41.9482 66.4285 42.0126C66.4347 42.1299 66.4312 42.2473 66.4312 42.3647C66.4312 43.5377 66.4312 44.7107 66.4312 45.8846C66.4312 46.0003 66.4472 46.1185 66.4017 46.2263C66.1954 46.289 65.7953 46.2985 65.4737 46.2498C65.3978 46.1577 65.4282 46.0455 65.4282 45.942C65.4255 45.0133 65.4282 44.0847 65.4255 43.156C65.4255 43.0508 65.4496 42.9412 65.3916 42.8325H65.3934Z" fill="#E8F643"/>
<path d="M55.7861 33.9576C56.0612 33.9098 56.4497 33.9107 56.6953 33.9559C56.765 34.0159 56.7525 34.0976 56.7525 34.1742C56.7543 34.5063 56.7534 34.8385 56.7534 35.1706C56.7534 36.0984 56.7534 37.0262 56.7534 37.954C56.7534 38.0601 56.748 38.1662 56.7454 38.2749C56.6962 38.2966 56.6614 38.3253 56.6257 38.3262C56.347 38.3323 56.0684 38.3549 55.7799 38.3097C55.7683 38.2297 55.7531 38.1645 55.7504 38.0993C55.7111 36.8836 55.7335 34.2237 55.7861 33.9576Z" fill="#E8F643"/>
<path d="M29.9219 62.5049C29.9469 62.1545 30.0585 61.8415 30.1853 61.5345C30.4193 60.9728 30.7552 60.4815 31.2714 60.125C31.7179 59.8172 32.2154 59.6598 32.7611 59.6406C33.1344 59.6276 33.5006 59.6554 33.8596 59.7711C34.5652 59.998 35.0626 60.4554 35.4128 61.0789C35.6414 61.4858 35.7825 61.9215 35.8513 62.3797C35.8557 62.4075 35.8513 62.4371 35.8486 62.4667C35.8486 62.4754 35.8414 62.484 35.8325 62.5049C35.803 62.5119 35.7655 62.5258 35.728 62.5284C35.3199 62.5519 30.1586 62.5327 29.9219 62.504V62.5049Z" fill="#E8F643"/>
<path d="M70.3394 44.0685C70.326 44.2145 70.3179 44.4189 70.2876 44.6215C70.2518 44.8589 70.1304 45.058 69.9661 45.238C69.6883 45.5415 69.1015 45.5797 68.7612 45.2102C68.6389 45.0771 68.5469 44.9258 68.4951 44.7563C68.3397 44.2554 68.3343 43.7563 68.5505 43.2693C68.6014 43.1546 68.6746 43.045 68.7595 42.9511C69.0765 42.5981 69.6267 42.5902 69.958 42.9302C70.1491 43.1259 70.2688 43.3598 70.301 43.6311C70.3162 43.7572 70.3242 43.8832 70.3403 44.0693L70.3394 44.0685Z" fill="black"/>
<path d="M12.221 66.9537C12.2103 66.912 12.1933 66.8755 12.1924 66.839C12.1844 65.5981 12.1888 64.3582 12.1879 63.1078C12.2612 63.0895 12.3157 63.0704 12.3719 63.0625C12.421 63.0556 12.472 63.0599 12.522 63.0599C14.0072 63.0599 15.4934 63.0565 16.9786 63.0617C17.5127 63.0634 18.0396 63.1251 18.546 63.3069C18.7934 63.3956 19.0212 63.5156 19.2221 63.6825C19.5597 63.9625 19.7464 64.3182 19.7901 64.746C19.8214 65.0503 19.8107 65.3529 19.7107 65.6451C19.5651 66.072 19.282 66.3894 18.8747 66.6042C18.5335 66.7833 18.1665 66.8816 17.7869 66.9259C17.4689 66.9633 17.1465 66.9807 16.8259 66.9824C15.4103 66.9885 13.9947 66.985 12.58 66.9842C12.4621 66.9842 12.3407 67.0007 12.2183 66.9546L12.221 66.9537Z" fill="#E8F643"/>
<path d="M12.2211 59.7811C12.1854 59.5542 12.1648 56.7081 12.1925 56.216C12.1952 56.169 12.2104 56.1238 12.222 56.0629C12.3077 56.0534 12.3854 56.0377 12.4631 56.0377C13.6778 56.036 14.8924 56.0325 16.1071 56.0386C16.4884 56.0403 16.8689 56.0777 17.2422 56.1629C17.4976 56.2212 17.7397 56.3125 17.9674 56.4421C18.3997 56.689 18.6703 57.049 18.7587 57.529C18.8311 57.922 18.798 58.3098 18.6283 58.6768C18.4702 59.0194 18.2059 59.2655 17.8674 59.4411C17.4976 59.6324 17.0975 59.7228 16.6876 59.7681C16.3991 59.7994 16.1071 59.8098 15.8168 59.8107C14.7424 59.815 13.6689 59.8133 12.5944 59.8124C12.4757 59.8124 12.3551 59.8255 12.2202 59.7794L12.2211 59.7811Z" fill="#E8F643"/>
<path d="M12.3209 17.3193C12.2709 17.0193 12.253 14.0246 12.287 12.1664C12.2888 12.0899 12.2995 12.0134 12.3075 11.9195C12.395 11.9091 12.4727 11.8917 12.5495 11.8917C13.5436 11.8899 14.5376 11.8847 15.5317 11.8943C16.0148 11.8986 16.4918 11.9647 16.949 12.1317C17.5519 12.3525 18.0431 12.7038 18.3503 13.2681C18.829 14.1499 18.8014 15.5472 17.9565 16.4194C17.6546 16.7315 17.2938 16.9524 16.8829 17.1011C16.4837 17.2446 16.072 17.3245 15.6469 17.3272C14.593 17.3324 13.5382 17.3324 12.4844 17.3332C12.4352 17.3332 12.3861 17.3254 12.32 17.3193H12.3209Z" fill="#E8F643"/>
<path d="M44.0802 40.381C44.0186 40.3914 43.9704 40.4053 43.9222 40.4053C42.035 40.4045 40.1479 40.4019 38.2598 40.3984C38.233 40.3984 38.2062 40.3767 38.1705 40.3619C38.1705 40.3236 38.1642 40.2836 38.1714 40.2471C38.3009 39.561 38.5715 38.9376 39.0458 38.408C39.5236 37.8732 40.1389 37.5906 40.8552 37.5185C41.3723 37.4663 41.8751 37.5367 42.3547 37.7437C42.9085 37.9828 43.3122 38.3758 43.6123 38.8802C43.8516 39.2828 43.9874 39.7201 44.0776 40.1732C44.0901 40.2367 44.0794 40.3045 44.0794 40.381H44.0802Z" fill="#E8F643"/>
<path d="M38.9164 20.1445C39.7094 20.168 40.4597 20.2776 41.1777 20.5558C41.234 20.5776 41.2947 20.5932 41.3421 20.6263C41.3787 20.6523 41.4207 20.7002 41.4233 20.741C41.4555 21.3002 41.4555 21.8549 41.1697 22.3697C40.916 22.8262 40.5356 23.1471 40.0649 23.3723C39.5808 23.6036 39.0637 23.7166 38.5252 23.7314C38.2537 23.7392 37.9831 23.7349 37.7151 23.6862C37.3954 23.6279 37.0953 23.5236 36.8265 23.3427C36.4308 23.0766 36.2066 22.7123 36.1682 22.2436C36.1245 21.7114 36.2549 21.2349 36.6452 20.8445C36.8667 20.6236 37.1364 20.4776 37.4329 20.3715C37.9205 20.1967 38.4296 20.1584 38.9164 20.1445Z" fill="#E8F643"/>
<path d="M62.9533 44.0753C62.9568 44.4135 62.8997 44.737 62.7202 45.0326C62.5755 45.2718 62.3754 45.437 62.0816 45.4691C61.7931 45.5013 61.5466 45.4196 61.3519 45.2057C61.2028 45.0422 61.1036 44.8509 61.0509 44.6396C60.9634 44.2927 60.9581 43.9448 61.0313 43.5944C61.0697 43.4101 61.1474 43.2431 61.2465 43.0823C61.5502 42.5866 62.2727 42.5362 62.6371 43.0266C62.7997 43.2449 62.897 43.4883 62.9301 43.7544C62.9435 43.8605 62.9452 43.9683 62.9524 44.0753H62.9533Z" fill="black"/>
</svg>
